<mxfile host="app.diagrams.net" modified="2024-02-18T01:12:53.863Z" agent="Mozilla/5.0 (Windows NT 10.0; Win64; x64) AppleWebKit/537.36 (KHTML, like Gecko) Chrome/121.0.0.0 Safari/537.36" etag="lfetH3vqTlmB_RhfkhC1" version="23.1.5" type="github">
  <diagram name="Página-1" id="KmIGXpOUeBcNwNkv0cVC">
    <mxGraphModel dx="1123" dy="426" grid="1" gridSize="10" guides="1" tooltips="1" connect="1" arrows="1" fold="1" page="1" pageScale="1" pageWidth="827" pageHeight="1169" math="0" shadow="0">
      <root>
        <mxCell id="0" />
        <mxCell id="1" parent="0" />
        <mxCell id="i14nEc_qPmO6KOhIdVPn-85" value="" style="edgeStyle=orthogonalEdgeStyle;rounded=0;orthogonalLoop=1;jettySize=auto;html=1;" edge="1" parent="1" source="i14nEc_qPmO6KOhIdVPn-1" target="i14nEc_qPmO6KOhIdVPn-8">
          <mxGeometry relative="1" as="geometry" />
        </mxCell>
        <mxCell id="i14nEc_qPmO6KOhIdVPn-1" value="&lt;font style=&quot;font-size: 14px;&quot;&gt;&lt;b&gt;Início&lt;/b&gt;&lt;/font&gt;" style="ellipse;whiteSpace=wrap;html=1;fillColor=#fff2cc;strokeColor=#d6b656;" vertex="1" parent="1">
          <mxGeometry x="157.5" width="120" height="80" as="geometry" />
        </mxCell>
        <mxCell id="i14nEc_qPmO6KOhIdVPn-27" style="edgeStyle=orthogonalEdgeStyle;rounded=0;orthogonalLoop=1;jettySize=auto;html=1;" edge="1" parent="1" source="i14nEc_qPmO6KOhIdVPn-6">
          <mxGeometry relative="1" as="geometry">
            <mxPoint x="297.5" y="270" as="targetPoint" />
            <Array as="points">
              <mxPoint x="392.5" y="270" />
            </Array>
          </mxGeometry>
        </mxCell>
        <mxCell id="i14nEc_qPmO6KOhIdVPn-6" value="&lt;font style=&quot;font-size: 14px;&quot;&gt;&lt;b&gt;Saldo inicial: &lt;br&gt;&quot; saldo +&quot;&lt;/b&gt;&lt;/font&gt;" style="shape=display;whiteSpace=wrap;html=1;fillColor=#fff2cc;strokeColor=#d6b656;" vertex="1" parent="1">
          <mxGeometry x="327.5" y="125" width="130" height="70" as="geometry" />
        </mxCell>
        <mxCell id="i14nEc_qPmO6KOhIdVPn-18" value="" style="edgeStyle=orthogonalEdgeStyle;rounded=0;orthogonalLoop=1;jettySize=auto;html=1;" edge="1" parent="1" source="i14nEc_qPmO6KOhIdVPn-8" target="i14nEc_qPmO6KOhIdVPn-6">
          <mxGeometry relative="1" as="geometry" />
        </mxCell>
        <mxCell id="i14nEc_qPmO6KOhIdVPn-8" value="SALDO" style="shape=manualInput;whiteSpace=wrap;html=1;fillColor=#fff2cc;strokeColor=#d6b656;" vertex="1" parent="1">
          <mxGeometry x="157.5" y="120" width="120" height="80" as="geometry" />
        </mxCell>
        <mxCell id="i14nEc_qPmO6KOhIdVPn-65" value="" style="edgeStyle=orthogonalEdgeStyle;rounded=0;orthogonalLoop=1;jettySize=auto;html=1;" edge="1" parent="1" source="i14nEc_qPmO6KOhIdVPn-22">
          <mxGeometry relative="1" as="geometry">
            <mxPoint x="218" y="335" as="targetPoint" />
          </mxGeometry>
        </mxCell>
        <mxCell id="i14nEc_qPmO6KOhIdVPn-22" value="Encerrar = &#39;n&#39;" style="whiteSpace=wrap;html=1;fillColor=#fff2cc;strokeColor=#d6b656;" vertex="1" parent="1">
          <mxGeometry x="157.5" y="240" width="120" height="60" as="geometry" />
        </mxCell>
        <mxCell id="i14nEc_qPmO6KOhIdVPn-31" value="" style="edgeStyle=orthogonalEdgeStyle;rounded=0;orthogonalLoop=1;jettySize=auto;html=1;" edge="1" parent="1" source="i14nEc_qPmO6KOhIdVPn-28" target="i14nEc_qPmO6KOhIdVPn-30">
          <mxGeometry relative="1" as="geometry" />
        </mxCell>
        <mxCell id="i14nEc_qPmO6KOhIdVPn-71" style="edgeStyle=orthogonalEdgeStyle;rounded=0;orthogonalLoop=1;jettySize=auto;html=1;" edge="1" parent="1" source="i14nEc_qPmO6KOhIdVPn-28">
          <mxGeometry relative="1" as="geometry">
            <mxPoint x="330" y="1080" as="targetPoint" />
            <Array as="points">
              <mxPoint x="761" y="385" />
            </Array>
          </mxGeometry>
        </mxCell>
        <mxCell id="i14nEc_qPmO6KOhIdVPn-28" value="Encerrar = &#39;n&#39;" style="rhombus;whiteSpace=wrap;html=1;fillColor=#fff2cc;strokeColor=#d6b656;" vertex="1" parent="1">
          <mxGeometry x="160" y="340" width="120" height="90" as="geometry" />
        </mxCell>
        <mxCell id="i14nEc_qPmO6KOhIdVPn-33" value="" style="edgeStyle=orthogonalEdgeStyle;rounded=0;orthogonalLoop=1;jettySize=auto;html=1;" edge="1" parent="1" source="i14nEc_qPmO6KOhIdVPn-30" target="i14nEc_qPmO6KOhIdVPn-32">
          <mxGeometry relative="1" as="geometry" />
        </mxCell>
        <mxCell id="i14nEc_qPmO6KOhIdVPn-30" value="Tipo de entrada" style="shape=manualInput;whiteSpace=wrap;html=1;fillColor=#fff2cc;strokeColor=#d6b656;" vertex="1" parent="1">
          <mxGeometry x="160" y="450" width="120" height="80" as="geometry" />
        </mxCell>
        <mxCell id="i14nEc_qPmO6KOhIdVPn-35" value="" style="edgeStyle=orthogonalEdgeStyle;rounded=0;orthogonalLoop=1;jettySize=auto;html=1;" edge="1" parent="1" source="i14nEc_qPmO6KOhIdVPn-32">
          <mxGeometry relative="1" as="geometry">
            <mxPoint x="220" y="680" as="targetPoint" />
          </mxGeometry>
        </mxCell>
        <mxCell id="i14nEc_qPmO6KOhIdVPn-32" value="Quantidade" style="shape=manualInput;whiteSpace=wrap;html=1;fillColor=#fff2cc;strokeColor=#d6b656;" vertex="1" parent="1">
          <mxGeometry x="160" y="555" width="120" height="80" as="geometry" />
        </mxCell>
        <mxCell id="i14nEc_qPmO6KOhIdVPn-37" value="" style="edgeStyle=orthogonalEdgeStyle;rounded=0;orthogonalLoop=1;jettySize=auto;html=1;" edge="1" parent="1" source="i14nEc_qPmO6KOhIdVPn-34" target="i14nEc_qPmO6KOhIdVPn-36">
          <mxGeometry relative="1" as="geometry" />
        </mxCell>
        <mxCell id="i14nEc_qPmO6KOhIdVPn-40" style="edgeStyle=orthogonalEdgeStyle;rounded=0;orthogonalLoop=1;jettySize=auto;html=1;" edge="1" parent="1" source="i14nEc_qPmO6KOhIdVPn-34">
          <mxGeometry relative="1" as="geometry">
            <mxPoint x="225" y="820" as="targetPoint" />
          </mxGeometry>
        </mxCell>
        <mxCell id="i14nEc_qPmO6KOhIdVPn-34" value="Tipo de entrada = 1" style="rhombus;whiteSpace=wrap;html=1;fillColor=#fff2cc;strokeColor=#d6b656;" vertex="1" parent="1">
          <mxGeometry x="165" y="690" width="120" height="90" as="geometry" />
        </mxCell>
        <mxCell id="i14nEc_qPmO6KOhIdVPn-39" value="" style="edgeStyle=orthogonalEdgeStyle;rounded=0;orthogonalLoop=1;jettySize=auto;html=1;" edge="1" parent="1" source="i14nEc_qPmO6KOhIdVPn-36" target="i14nEc_qPmO6KOhIdVPn-38">
          <mxGeometry relative="1" as="geometry" />
        </mxCell>
        <mxCell id="i14nEc_qPmO6KOhIdVPn-36" value="Saldo = saldo + quantidade" style="rounded=1;whiteSpace=wrap;html=1;fillColor=#fff2cc;strokeColor=#d6b656;" vertex="1" parent="1">
          <mxGeometry x="360" y="705" width="120" height="60" as="geometry" />
        </mxCell>
        <mxCell id="i14nEc_qPmO6KOhIdVPn-38" value="&lt;span style=&quot;font-size: 14px;&quot;&gt;&lt;b&gt;Entrada : + quantidade&lt;/b&gt;&lt;/span&gt;" style="shape=display;whiteSpace=wrap;html=1;fillColor=#fff2cc;strokeColor=#d6b656;" vertex="1" parent="1">
          <mxGeometry x="570" y="700" width="130" height="70" as="geometry" />
        </mxCell>
        <mxCell id="i14nEc_qPmO6KOhIdVPn-42" style="edgeStyle=orthogonalEdgeStyle;rounded=0;orthogonalLoop=1;jettySize=auto;html=1;" edge="1" parent="1">
          <mxGeometry relative="1" as="geometry">
            <mxPoint x="240" y="815" as="targetPoint" />
            <mxPoint x="640" y="770" as="sourcePoint" />
            <Array as="points">
              <mxPoint x="635" y="815" />
            </Array>
          </mxGeometry>
        </mxCell>
        <mxCell id="i14nEc_qPmO6KOhIdVPn-43" value="&lt;b&gt;&lt;font style=&quot;font-size: 18px;&quot;&gt;V&lt;/font&gt;&lt;/b&gt;" style="text;html=1;align=center;verticalAlign=middle;resizable=0;points=[];autosize=1;strokeColor=none;fillColor=none;" vertex="1" parent="1">
          <mxGeometry x="300" y="690" width="40" height="40" as="geometry" />
        </mxCell>
        <mxCell id="i14nEc_qPmO6KOhIdVPn-44" value="&lt;b&gt;&lt;font style=&quot;font-size: 18px;&quot;&gt;F&lt;/font&gt;&lt;/b&gt;" style="text;html=1;align=center;verticalAlign=middle;resizable=0;points=[];autosize=1;strokeColor=none;fillColor=none;" vertex="1" parent="1">
          <mxGeometry x="180" y="780" width="30" height="40" as="geometry" />
        </mxCell>
        <mxCell id="i14nEc_qPmO6KOhIdVPn-45" value="&lt;b&gt;&lt;font style=&quot;font-size: 18px;&quot;&gt;V&lt;/font&gt;&lt;/b&gt;" style="text;html=1;align=center;verticalAlign=middle;resizable=0;points=[];autosize=1;strokeColor=none;fillColor=none;" vertex="1" parent="1">
          <mxGeometry x="180" y="430" width="40" height="40" as="geometry" />
        </mxCell>
        <mxCell id="i14nEc_qPmO6KOhIdVPn-50" value="" style="edgeStyle=orthogonalEdgeStyle;rounded=0;orthogonalLoop=1;jettySize=auto;html=1;" edge="1" parent="1" source="i14nEc_qPmO6KOhIdVPn-46" target="i14nEc_qPmO6KOhIdVPn-47">
          <mxGeometry relative="1" as="geometry" />
        </mxCell>
        <mxCell id="i14nEc_qPmO6KOhIdVPn-78" style="edgeStyle=orthogonalEdgeStyle;rounded=0;orthogonalLoop=1;jettySize=auto;html=1;" edge="1" parent="1">
          <mxGeometry relative="1" as="geometry">
            <mxPoint x="174.35" y="962" as="targetPoint" />
            <mxPoint x="215.6" y="924.005" as="sourcePoint" />
            <Array as="points">
              <mxPoint x="215.35" y="962" />
            </Array>
          </mxGeometry>
        </mxCell>
        <mxCell id="i14nEc_qPmO6KOhIdVPn-46" value="Tipo de entrada = 2" style="rhombus;whiteSpace=wrap;html=1;fillColor=#fff2cc;strokeColor=#d6b656;" vertex="1" parent="1">
          <mxGeometry x="157.5" y="832" width="120" height="90" as="geometry" />
        </mxCell>
        <mxCell id="i14nEc_qPmO6KOhIdVPn-49" value="" style="edgeStyle=orthogonalEdgeStyle;rounded=0;orthogonalLoop=1;jettySize=auto;html=1;" edge="1" parent="1" source="i14nEc_qPmO6KOhIdVPn-47" target="i14nEc_qPmO6KOhIdVPn-48">
          <mxGeometry relative="1" as="geometry" />
        </mxCell>
        <mxCell id="i14nEc_qPmO6KOhIdVPn-55" value="" style="edgeStyle=orthogonalEdgeStyle;rounded=0;orthogonalLoop=1;jettySize=auto;html=1;" edge="1" parent="1" source="i14nEc_qPmO6KOhIdVPn-47" target="i14nEc_qPmO6KOhIdVPn-54">
          <mxGeometry relative="1" as="geometry" />
        </mxCell>
        <mxCell id="i14nEc_qPmO6KOhIdVPn-47" value="saldo &amp;gt;= &lt;br&gt;quantidade" style="rhombus;whiteSpace=wrap;html=1;fillColor=#fff2cc;strokeColor=#d6b656;" vertex="1" parent="1">
          <mxGeometry x="357.5" y="832" width="120" height="90" as="geometry" />
        </mxCell>
        <mxCell id="i14nEc_qPmO6KOhIdVPn-56" value="" style="edgeStyle=orthogonalEdgeStyle;rounded=0;orthogonalLoop=1;jettySize=auto;html=1;" edge="1" parent="1" source="i14nEc_qPmO6KOhIdVPn-48" target="i14nEc_qPmO6KOhIdVPn-53">
          <mxGeometry relative="1" as="geometry" />
        </mxCell>
        <mxCell id="i14nEc_qPmO6KOhIdVPn-48" value="Saldo = saldo - quantidade" style="rounded=1;whiteSpace=wrap;html=1;fillColor=#fff2cc;strokeColor=#d6b656;" vertex="1" parent="1">
          <mxGeometry x="557.5" y="847" width="120" height="60" as="geometry" />
        </mxCell>
        <mxCell id="i14nEc_qPmO6KOhIdVPn-51" value="&lt;b&gt;V&lt;/b&gt;" style="text;html=1;align=center;verticalAlign=middle;resizable=0;points=[];autosize=1;strokeColor=none;fillColor=none;" vertex="1" parent="1">
          <mxGeometry x="290" y="847" width="30" height="30" as="geometry" />
        </mxCell>
        <mxCell id="i14nEc_qPmO6KOhIdVPn-52" value="&lt;b&gt;V&lt;/b&gt;" style="text;html=1;align=center;verticalAlign=middle;resizable=0;points=[];autosize=1;strokeColor=none;fillColor=none;" vertex="1" parent="1">
          <mxGeometry x="500" y="850" width="30" height="30" as="geometry" />
        </mxCell>
        <mxCell id="i14nEc_qPmO6KOhIdVPn-82" style="edgeStyle=orthogonalEdgeStyle;rounded=0;orthogonalLoop=1;jettySize=auto;html=1;" edge="1" parent="1" source="i14nEc_qPmO6KOhIdVPn-53">
          <mxGeometry relative="1" as="geometry">
            <mxPoint x="200" y="980" as="targetPoint" />
            <Array as="points">
              <mxPoint x="618" y="1040" />
            </Array>
          </mxGeometry>
        </mxCell>
        <mxCell id="i14nEc_qPmO6KOhIdVPn-53" value="&lt;span style=&quot;font-size: 14px;&quot;&gt;&lt;b&gt;Saída: + quantidade&amp;nbsp;&lt;/b&gt;&lt;/span&gt;" style="shape=display;whiteSpace=wrap;html=1;fillColor=#fff2cc;strokeColor=#d6b656;" vertex="1" parent="1">
          <mxGeometry x="552.5" y="962" width="130" height="70" as="geometry" />
        </mxCell>
        <mxCell id="i14nEc_qPmO6KOhIdVPn-79" style="edgeStyle=orthogonalEdgeStyle;rounded=0;orthogonalLoop=1;jettySize=auto;html=1;" edge="1" parent="1" source="i14nEc_qPmO6KOhIdVPn-54">
          <mxGeometry relative="1" as="geometry">
            <mxPoint x="180" y="970" as="targetPoint" />
          </mxGeometry>
        </mxCell>
        <mxCell id="i14nEc_qPmO6KOhIdVPn-54" value="&lt;span style=&quot;font-size: 14px;&quot;&gt;&lt;b&gt;Saldo &lt;br&gt;insuficiente&lt;/b&gt;&lt;/span&gt;" style="shape=display;whiteSpace=wrap;html=1;fillColor=#fff2cc;strokeColor=#d6b656;" vertex="1" parent="1">
          <mxGeometry x="352.5" y="962" width="130" height="70" as="geometry" />
        </mxCell>
        <mxCell id="i14nEc_qPmO6KOhIdVPn-75" value="" style="edgeStyle=orthogonalEdgeStyle;rounded=0;orthogonalLoop=1;jettySize=auto;html=1;" edge="1" parent="1" source="i14nEc_qPmO6KOhIdVPn-60" target="i14nEc_qPmO6KOhIdVPn-66">
          <mxGeometry relative="1" as="geometry" />
        </mxCell>
        <mxCell id="i14nEc_qPmO6KOhIdVPn-60" value="&lt;span style=&quot;font-size: 14px;&quot;&gt;&lt;b&gt;Saldo&lt;br&gt;&lt;/b&gt;&lt;/span&gt;" style="shape=display;whiteSpace=wrap;html=1;fillColor=#fff2cc;strokeColor=#d6b656;" vertex="1" parent="1">
          <mxGeometry x="65" y="930" width="100" height="50" as="geometry" />
        </mxCell>
        <mxCell id="i14nEc_qPmO6KOhIdVPn-74" style="edgeStyle=orthogonalEdgeStyle;rounded=0;orthogonalLoop=1;jettySize=auto;html=1;" edge="1" parent="1" source="i14nEc_qPmO6KOhIdVPn-66">
          <mxGeometry relative="1" as="geometry">
            <mxPoint x="150" y="390" as="targetPoint" />
            <Array as="points">
              <mxPoint x="30" y="1040" />
              <mxPoint x="30" y="390" />
            </Array>
          </mxGeometry>
        </mxCell>
        <mxCell id="i14nEc_qPmO6KOhIdVPn-66" value="encerrar?(s/n)" style="shape=manualInput;whiteSpace=wrap;html=1;fillColor=#fff2cc;strokeColor=#d6b656;" vertex="1" parent="1">
          <mxGeometry x="70" y="1010" width="85" height="60" as="geometry" />
        </mxCell>
        <mxCell id="i14nEc_qPmO6KOhIdVPn-70" value="" style="edgeStyle=orthogonalEdgeStyle;rounded=0;orthogonalLoop=1;jettySize=auto;html=1;" edge="1" parent="1" source="i14nEc_qPmO6KOhIdVPn-67" target="i14nEc_qPmO6KOhIdVPn-69">
          <mxGeometry relative="1" as="geometry" />
        </mxCell>
        <mxCell id="i14nEc_qPmO6KOhIdVPn-67" value="&lt;span style=&quot;font-size: 14px;&quot;&gt;&lt;b&gt;Sistema encerrado&lt;br&gt;&lt;/b&gt;&lt;/span&gt;" style="shape=display;whiteSpace=wrap;html=1;fillColor=#fff2cc;strokeColor=#d6b656;" vertex="1" parent="1">
          <mxGeometry x="220" y="1060" width="100" height="50" as="geometry" />
        </mxCell>
        <mxCell id="i14nEc_qPmO6KOhIdVPn-69" value="&lt;b&gt;FIM&lt;/b&gt;" style="ellipse;whiteSpace=wrap;html=1;fillColor=#fff2cc;strokeColor=#d6b656;" vertex="1" parent="1">
          <mxGeometry x="230" y="1130" width="80" height="35" as="geometry" />
        </mxCell>
        <mxCell id="i14nEc_qPmO6KOhIdVPn-73" value="&lt;b&gt;&lt;font style=&quot;font-size: 18px;&quot;&gt;F&lt;/font&gt;&lt;/b&gt;" style="text;html=1;align=center;verticalAlign=middle;resizable=0;points=[];autosize=1;strokeColor=none;fillColor=none;" vertex="1" parent="1">
          <mxGeometry x="335" y="343" width="30" height="40" as="geometry" />
        </mxCell>
        <mxCell id="i14nEc_qPmO6KOhIdVPn-83" value="&lt;b&gt;F&lt;/b&gt;" style="text;html=1;align=center;verticalAlign=middle;resizable=0;points=[];autosize=1;strokeColor=none;fillColor=none;" vertex="1" parent="1">
          <mxGeometry x="185" y="922" width="30" height="30" as="geometry" />
        </mxCell>
        <mxCell id="i14nEc_qPmO6KOhIdVPn-84" value="&lt;b&gt;F&lt;/b&gt;" style="text;html=1;align=center;verticalAlign=middle;resizable=0;points=[];autosize=1;strokeColor=none;fillColor=none;" vertex="1" parent="1">
          <mxGeometry x="385" y="918" width="30" height="30" as="geometry" />
        </mxCell>
      </root>
    </mxGraphModel>
  </diagram>
</mxfile>
